<?xml version="1.0" encoding="UTF-8" standalone="no"?>
<!-- Created with Inkscape (http://www.inkscape.org/) -->

<svg
   xmlns:dc="http://purl.org/dc/elements/1.1/"
   xmlns:cc="http://creativecommons.org/ns#"
   xmlns:rdf="http://www.w3.org/1999/02/22-rdf-syntax-ns#"
   xmlns:svg="http://www.w3.org/2000/svg"
   xmlns="http://www.w3.org/2000/svg"
   xmlns:sodipodi="http://sodipodi.sourceforge.net/DTD/sodipodi-0.dtd"
   xmlns:inkscape="http://www.inkscape.org/namespaces/inkscape"
   width="325.44083mm"
   height="80.756546mm"
   viewBox="0 0 325.44083 80.756546"
   version="1.1"
   id="svg8"
   inkscape:version="0.92.4 (f8dce91, 2019-08-02)">
  <defs
     id="defs2" />
  <sodipodi:namedview
     id="base"
     pagecolor="#ffffff"
     bordercolor="#666666"
     borderopacity="1.0"
     inkscape:pageopacity="0.0"
     inkscape:pageshadow="2"
     inkscape:zoom="0.70710678"
     inkscape:cx="-105.90249"
     inkscape:cy="152.78072"
     inkscape:document-units="mm"
     inkscape:current-layer="layer1"
     showgrid="false"
     fit-margin-top="0"
     fit-margin-left="0"
     fit-margin-right="0"
     fit-margin-bottom="0"
     inkscape:window-width="1293"
     inkscape:window-height="713"
     inkscape:window-x="67"
     inkscape:window-y="27"
     inkscape:window-maximized="1" />
  <metadata
     id="metadata5">
    <rdf:RDF>
      <cc:Work
         rdf:about="">
        <dc:format>image/svg+xml</dc:format>
        <dc:type
           rdf:resource="http://purl.org/dc/dcmitype/StillImage" />
        <dc:title></dc:title>
      </cc:Work>
    </rdf:RDF>
  </metadata>
  <g
     inkscape:label="Layer 1"
     inkscape:groupmode="layer"
     id="layer1"
     transform="translate(-8.0143835,-6.749077)">
    <rect
       style="fill:#1a1a1a;fill-opacity:1;stroke:#b3b3b3;stroke-width:0.26458332;stroke-opacity:1"
       id="rect4568"
       width="25"
       height="25"
       x="58.146671"
       y="8.1322918"
       inkscape:export-xdpi="96"
       inkscape:export-ydpi="96" />
    <rect
       y="8.1322918"
       x="33.146675"
       height="25"
       width="25"
       id="rect4576"
       style="fill:#ffffff;fill-opacity:1;stroke:#b3b3b3;stroke-width:0.26458332;stroke-opacity:1"
       inkscape:export-xdpi="96"
       inkscape:export-ydpi="96" />
    <rect
       style="fill:#ffffff;fill-opacity:1;stroke:#b3b3b3;stroke-width:0.26458332;stroke-opacity:1"
       id="rect4578"
       width="25"
       height="25"
       x="8.1466751"
       y="8.1322918"
       inkscape:export-xdpi="96"
       inkscape:export-ydpi="96" />
    <rect
       y="33.132294"
       x="58.146671"
       height="25"
       width="25"
       id="rect4580"
       style="fill:#ffffff;fill-opacity:1;stroke:#b3b3b3;stroke-width:0.26458332;stroke-opacity:1"
       inkscape:export-xdpi="96"
       inkscape:export-ydpi="96" />
    <rect
       style="fill:#1a1a1a;fill-opacity:1;stroke:#b3b3b3;stroke-width:0.26458332;stroke-opacity:1"
       id="rect4582"
       width="25"
       height="25"
       x="33.146675"
       y="33.132294"
       inkscape:export-xdpi="96"
       inkscape:export-ydpi="96" />
    <rect
       y="33.132294"
       x="8.1466751"
       height="25"
       width="25"
       id="rect4584"
       style="fill:#ffffff;fill-opacity:1;stroke:#b3b3b3;stroke-width:0.26458332;stroke-opacity:1"
       inkscape:export-xdpi="96"
       inkscape:export-ydpi="96" />
    <rect
       style="fill:#ffffff;fill-opacity:1;stroke:#b3b3b3;stroke-width:0.26458332;stroke-opacity:1"
       id="rect4586"
       width="25"
       height="25"
       x="58.146671"
       y="58.132294"
       inkscape:export-xdpi="96"
       inkscape:export-ydpi="96" />
    <rect
       y="58.132294"
       x="33.146675"
       height="25"
       width="25"
       id="rect4588"
       style="fill:#1a1a1a;fill-opacity:1;stroke:#b3b3b3;stroke-width:0.26458332;stroke-opacity:1"
       inkscape:export-xdpi="96"
       inkscape:export-ydpi="96" />
    <rect
       style="fill:#ffffff;fill-opacity:1;stroke:#b3b3b3;stroke-width:0.26458332;stroke-opacity:1"
       id="rect4590"
       width="25"
       height="25"
       x="8.1466751"
       y="58.132294"
       inkscape:export-xdpi="96"
       inkscape:export-ydpi="96" />
    <g
       aria-label="Coding
Complexity LLC"
       transform="matrix(0.88450359,0,0,0.88450359,-190.75932,-25.974032)"
       style="font-style:normal;font-variant:normal;font-weight:normal;font-stretch:normal;font-size:40px;line-height:1.25;font-family:Samanata;-inkscape-font-specification:Samanata;letter-spacing:0px;word-spacing:0px;fill:#000000;fill-opacity:1;stroke:none"
       id="flowRoot4592">
      <path
         d="m 329.61586,68.636016 q -2.92,0 -5.32,-0.96 -2.4,-0.96 -4.12,-2.8 -1.72,-1.84 -2.68,-4.52 -0.92,-2.72 -0.92,-6.2 0,-3.48 1.04,-6.16 1.08,-2.72 2.88,-4.56 1.8,-1.84 4.2,-2.8 2.4,-0.96 5.12,-0.96 1.72,0 3.08,0.24 1.4,0.24 2.4,0.56 1.04,0.32 1.68,0.64 0.64,0.32 0.88,0.48 l -1.12,3.2 q -0.36,-0.24 -1.04,-0.52 -0.68,-0.28 -1.56,-0.56 -0.84,-0.28 -1.88,-0.44 -1,-0.2 -2.04,-0.2 -2.2,0 -3.96,0.76 -1.76,0.76 -3,2.2 -1.24,1.44 -1.92,3.52 -0.64,2.04 -0.64,4.6 0,2.48 0.56,4.52 0.6,2.04 1.76,3.52 1.16,1.44 2.88,2.24 1.76,0.8 4.08,0.8 2.68,0 4.44,-0.56 1.76,-0.56 2.64,-1 l 1,3.2 q -0.28,0.2 -1,0.52 -0.72,0.28 -1.8,0.56 -1.08,0.28 -2.52,0.48 -1.44,0.2 -3.12,0.2 z"
         style="font-style:normal;font-variant:normal;font-weight:normal;font-stretch:normal;font-family:Ubuntu;-inkscape-font-specification:Ubuntu"
         id="path4659"
         inkscape:connector-curvature="0" />
      <path
         d="m 359.95648,57.636016 q 0,2.48 -0.72,4.48 -0.72,2 -2.04,3.44 -1.28,1.44 -3.08,2.24 -1.8,0.76 -3.92,0.76 -2.12,0 -3.92,-0.76 -1.8,-0.8 -3.12,-2.24 -1.28,-1.44 -2,-3.44 -0.72,-2 -0.72,-4.48 0,-2.44 0.72,-4.44 0.72,-2.04 2,-3.48 1.32,-1.44 3.12,-2.2 1.8,-0.8 3.92,-0.8 2.12,0 3.92,0.8 1.8,0.76 3.08,2.2 1.32,1.44 2.04,3.48 0.72,2 0.72,4.44 z m -3.88,0 q 0,-3.52 -1.6,-5.56 -1.56,-2.08 -4.28,-2.08 -2.72,0 -4.32,2.08 -1.56,2.04 -1.56,5.56 0,3.52 1.56,5.6 1.6,2.04 4.32,2.04 2.72,0 4.28,-2.04 1.6,-2.08 1.6,-5.6 z"
         style="font-style:normal;font-variant:normal;font-weight:normal;font-stretch:normal;font-family:Ubuntu;-inkscape-font-specification:Ubuntu"
         id="path4661"
         inkscape:connector-curvature="0" />
      <path
         d="m 378.63023,51.636016 q -0.68,-0.56 -1.96,-1.08 -1.28,-0.52 -2.8,-0.52 -1.6,0 -2.76,0.6 -1.12,0.56 -1.84,1.6 -0.72,1 -1.04,2.4 -0.32,1.4 -0.32,3 0,3.64 1.8,5.64 1.8,1.96 4.8,1.96 1.52,0 2.52,-0.12 1.04,-0.16 1.6,-0.32 z m 0,-14 3.72,-0.64 v 30.44 q -1.28,0.36 -3.28,0.72 -2,0.36 -4.6,0.36 -2.4,0 -4.32,-0.76 -1.92,-0.76 -3.28,-2.16 -1.36,-1.4 -2.12,-3.4 -0.72,-2.04 -0.72,-4.56 0,-2.4 0.6,-4.4 0.64,-2 1.84,-3.44 1.2,-1.44 2.92,-2.24 1.76,-0.8 4,-0.8 1.8,0 3.16,0.48 1.4,0.48 2.08,0.92 z"
         style="font-style:normal;font-variant:normal;font-weight:normal;font-stretch:normal;font-family:Ubuntu;-inkscape-font-specification:Ubuntu"
         id="path4663"
         inkscape:connector-curvature="0" />
      <path
         d="m 392.50398,68.036016 h -3.72 v -20.8 h 3.72 z m -1.88,-24.56 q -1,0 -1.72,-0.64 -0.68,-0.68 -0.68,-1.8 0,-1.12 0.68,-1.76 0.72,-0.68 1.72,-0.68 1,0 1.68,0.68 0.72,0.64 0.72,1.76 0,1.12 -0.72,1.8 -0.68,0.64 -1.68,0.64 z"
         style="font-style:normal;font-variant:normal;font-weight:normal;font-stretch:normal;font-family:Ubuntu;-inkscape-font-specification:Ubuntu"
         id="path4665"
         inkscape:connector-curvature="0" />
      <path
         d="m 398.94023,47.836016 q 1.28,-0.32 3.4,-0.68 2.12,-0.36 4.88,-0.36 2.48,0 4.12,0.72 1.64,0.68 2.6,1.96 1,1.24 1.4,3 0.4,1.76 0.4,3.88 v 11.68 h -3.72 v -10.88 q 0,-1.92 -0.28,-3.28 -0.24,-1.36 -0.84,-2.2 -0.6,-0.84 -1.6,-1.2 -1,-0.4 -2.48,-0.4 -0.6,0 -1.24,0.04 -0.64,0.04 -1.24,0.12 -0.56,0.04 -1.04,0.12 -0.44,0.08 -0.64,0.12 v 17.56 h -3.72 z"
         style="font-style:normal;font-variant:normal;font-weight:normal;font-stretch:normal;font-family:Ubuntu;-inkscape-font-specification:Ubuntu"
         id="path4667"
         inkscape:connector-curvature="0" />
      <path
         d="m 434.94898,65.956016 q -0.48,0.32 -1.88,0.84 -1.36,0.48 -3.2,0.48 -1.88,0 -3.56,-0.6 -1.64,-0.6 -2.88,-1.84 -1.24,-1.28 -1.96,-3.16 -0.72,-1.88 -0.72,-4.48 0,-2.28 0.68,-4.16 0.68,-1.92 1.96,-3.28 1.32,-1.4 3.2,-2.16 1.88,-0.8 4.24,-0.8 2.6,0 4.52,0.4 1.96,0.36 3.28,0.68 v 18.56 q 0,4.8 -2.48,6.96 -2.48,2.16 -7.52,2.16 -1.96,0 -3.72,-0.32 -1.72,-0.32 -3,-0.76 l 0.68,-3.24 q 1.12,0.44 2.72,0.76 1.64,0.36 3.4,0.36 3.32,0 4.76,-1.32 1.48,-1.32 1.48,-4.2 z m -0.04,-15.44 q -0.56,-0.16 -1.52,-0.28 -0.92,-0.16 -2.52,-0.16 -3,0 -4.64,1.96 -1.6,1.96 -1.6,5.2 0,1.8 0.44,3.08 0.48,1.28 1.24,2.12 0.8,0.84 1.8,1.24 1.04,0.4 2.12,0.4 1.48,0 2.72,-0.4 1.24,-0.44 1.96,-1 z"
         style="font-style:normal;font-variant:normal;font-weight:normal;font-stretch:normal;font-family:Ubuntu;-inkscape-font-specification:Ubuntu"
         id="path4669"
         inkscape:connector-curvature="0" />
      <path
         d="m 329.61586,121.37756 q -2.92,0 -5.32,-0.96 -2.4,-0.96 -4.12,-2.8 -1.72,-1.84 -2.68,-4.52 -0.92,-2.72 -0.92,-6.2 0,-3.48 1.04,-6.16 1.08,-2.719997 2.88,-4.559997 1.8,-1.84 4.2,-2.8 2.4,-0.96 5.12,-0.96 1.72,0 3.08,0.24 1.4,0.24 2.4,0.56 1.04,0.32 1.68,0.64 0.64,0.32 0.88,0.48 l -1.12,3.2 q -0.36,-0.24 -1.04,-0.52 -0.68,-0.28 -1.56,-0.56 -0.84,-0.28 -1.88,-0.44 -1,-0.2 -2.04,-0.2 -2.2,0 -3.96,0.76 -1.76,0.76 -3,2.2 -1.24,1.439997 -1.92,3.519997 -0.64,2.04 -0.64,4.6 0,2.48 0.56,4.52 0.6,2.04 1.76,3.52 1.16,1.44 2.88,2.24 1.76,0.8 4.08,0.8 2.68,0 4.44,-0.56 1.76,-0.56 2.64,-1 l 1,3.2 q -0.28,0.2 -1,0.52 -0.72,0.28 -1.8,0.56 -1.08,0.28 -2.52,0.48 -1.44,0.2 -3.12,0.2 z"
         style="font-style:normal;font-variant:normal;font-weight:normal;font-stretch:normal;font-family:Ubuntu;-inkscape-font-specification:Ubuntu"
         id="path4671"
         inkscape:connector-curvature="0" />
      <path
         d="m 359.95648,110.37756 q 0,2.48 -0.72,4.48 -0.72,2 -2.04,3.44 -1.28,1.44 -3.08,2.24 -1.8,0.76 -3.92,0.76 -2.12,0 -3.92,-0.76 -1.8,-0.8 -3.12,-2.24 -1.28,-1.44 -2,-3.44 -0.72,-2 -0.72,-4.48 0,-2.44 0.72,-4.44 0.72,-2.04 2,-3.48 1.32,-1.44 3.12,-2.2 1.8,-0.799997 3.92,-0.799997 2.12,0 3.92,0.799997 1.8,0.76 3.08,2.2 1.32,1.44 2.04,3.48 0.72,2 0.72,4.44 z m -3.88,0 q 0,-3.52 -1.6,-5.56 -1.56,-2.08 -4.28,-2.08 -2.72,0 -4.32,2.08 -1.56,2.04 -1.56,5.56 0,3.52 1.56,5.6 1.6,2.04 4.32,2.04 2.72,0 4.28,-2.04 1.6,-2.08 1.6,-5.6 z"
         style="font-style:normal;font-variant:normal;font-weight:normal;font-stretch:normal;font-family:Ubuntu;-inkscape-font-specification:Ubuntu"
         id="path4673"
         inkscape:connector-curvature="0" />
      <path
         d="m 365.19023,100.57756 q 1.28,-0.32 3.36,-0.679997 2.12,-0.36 4.88,-0.36 2,0 3.36,0.559997 1.36,0.52 2.28,1.56 0.28,-0.2 0.88,-0.56 0.6,-0.36 1.48,-0.68 0.88,-0.36 1.96,-0.599997 1.08,-0.28 2.32,-0.28 2.4,0 3.92,0.719997 1.52,0.68 2.36,1.96 0.88,1.28 1.16,3.04 0.32,1.76 0.32,3.84 v 11.68 h -3.72 v -10.88 q 0,-1.84 -0.2,-3.16 -0.16,-1.32 -0.68,-2.2 -0.48,-0.88 -1.36,-1.28 -0.84,-0.44 -2.2,-0.44 -1.88,0 -3.12,0.52 -1.2,0.48 -1.64,0.88 0.32,1.04 0.48,2.28 0.16,1.24 0.16,2.6 v 11.68 h -3.72 v -10.88 q 0,-1.84 -0.2,-3.16 -0.2,-1.32 -0.72,-2.2 -0.48,-0.88 -1.36,-1.28 -0.84,-0.44 -2.16,-0.44 -0.56,0 -1.2,0.04 -0.64,0.04 -1.24,0.12 -0.56,0.04 -1.04,0.12 -0.48,0.08 -0.64,0.12 v 17.56 h -3.72 z"
         style="font-style:normal;font-variant:normal;font-weight:normal;font-stretch:normal;font-family:Ubuntu;-inkscape-font-specification:Ubuntu"
         id="path4675"
         inkscape:connector-curvature="0" />
      <path
         d="m 414.08336,110.41756 q 0,-3.64 -1.8,-5.6 -1.8,-1.96 -4.8,-1.96 -1.68,0 -2.64,0.12 -0.92,0.12 -1.48,0.28 v 13.12 q 0.68,0.56 1.96,1.08 1.28,0.52 2.8,0.52 1.6,0 2.72,-0.56 1.16,-0.6 1.88,-1.6 0.72,-1.04 1.04,-2.4 0.32,-1.4 0.32,-3 z m 3.88,0 q 0,2.36 -0.64,4.36 -0.6,2 -1.8,3.44 -1.2,1.44 -2.96,2.24 -1.72,0.8 -3.96,0.8 -1.8,0 -3.2,-0.48 -1.36,-0.48 -2.04,-0.92 v 8.32 h -3.72 v -27.56 q 1.32,-0.32 3.28,-0.679997 2,-0.4 4.6,-0.4 2.4,0 4.32,0.759997 1.92,0.76 3.28,2.16 1.36,1.4 2.08,3.44 0.76,2 0.76,4.52 z"
         style="font-style:normal;font-variant:normal;font-weight:normal;font-stretch:normal;font-family:Ubuntu;-inkscape-font-specification:Ubuntu"
         id="path4677"
         inkscape:connector-curvature="0" />
      <path
         d="m 429.47711,121.17756 q -3.44,-0.08 -4.88,-1.48 -1.44,-1.4 -1.44,-4.36 V 90.377563 l 3.72,-0.64 v 24.999997 q 0,0.92 0.16,1.52 0.16,0.6 0.52,0.96 0.36,0.36 0.96,0.56 0.6,0.16 1.48,0.28 z"
         style="font-style:normal;font-variant:normal;font-weight:normal;font-stretch:normal;font-family:Ubuntu;-inkscape-font-specification:Ubuntu"
         id="path4679"
         inkscape:connector-curvature="0" />
      <path
         d="m 433.01461,110.41756 q 0,-2.76 0.8,-4.8 0.8,-2.08 2.12,-3.44 1.32,-1.36 3.04,-2.04 1.72,-0.679997 3.52,-0.679997 4.2,0 6.44,2.639997 2.24,2.6 2.24,7.96 0,0.24 0,0.64 0,0.36 -0.04,0.68 h -14.24 q 0.24,3.24 1.88,4.92 1.64,1.68 5.12,1.68 1.96,0 3.28,-0.32 1.36,-0.36 2.04,-0.68 l 0.52,3.12 q -0.68,0.36 -2.4,0.76 -1.68,0.4 -3.84,0.4 -2.72,0 -4.72,-0.8 -1.96,-0.84 -3.24,-2.28 -1.28,-1.44 -1.92,-3.4 -0.6,-2 -0.6,-4.36 z m 14.28,-2.04 q 0.04,-2.52 -1.28,-4.12 -1.28,-1.64 -3.56,-1.64 -1.28,0 -2.28,0.52 -0.96,0.48 -1.64,1.28 -0.68,0.8 -1.08,1.84 -0.36,1.04 -0.48,2.12 z"
         style="font-style:normal;font-variant:normal;font-weight:normal;font-stretch:normal;font-family:Ubuntu;-inkscape-font-specification:Ubuntu"
         id="path4681"
         inkscape:connector-curvature="0" />
      <path
         d="m 468.95836,120.77756 q -0.44,-0.88 -1.08,-1.96 -0.64,-1.08 -1.4,-2.2 -0.76,-1.16 -1.56,-2.28 -0.8,-1.12 -1.56,-2.12 -0.76,1 -1.56,2.16 -0.8,1.12 -1.56,2.28 -0.72,1.12 -1.36,2.2 -0.64,1.08 -1.08,1.92 h -3.84 q 1.4,-2.72 3.32,-5.52 1.96,-2.84 3.88,-5.4 l -6.88,-9.879997 h 4.2 l 4.96,7.279997 5,-7.279997 h 3.96 l -6.72,9.639997 q 1.92,2.6 3.92,5.52 2.04,2.88 3.44,5.64 z"
         style="font-style:normal;font-variant:normal;font-weight:normal;font-stretch:normal;font-family:Ubuntu;-inkscape-font-specification:Ubuntu"
         id="path4683"
         inkscape:connector-curvature="0" />
      <path
         d="m 480.70711,120.77756 h -3.72 V 99.977563 h 3.72 z m -1.88,-24.559997 q -1,0 -1.72,-0.64 -0.68,-0.68 -0.68,-1.8 0,-1.12 0.68,-1.76 0.72,-0.68 1.72,-0.68 1,0 1.68,0.68 0.72,0.64 0.72,1.76 0,1.12 -0.72,1.8 -0.68,0.64 -1.68,0.64 z"
         style="font-style:normal;font-variant:normal;font-weight:normal;font-stretch:normal;font-family:Ubuntu;-inkscape-font-specification:Ubuntu"
         id="path4685"
         inkscape:connector-curvature="0" />
      <path
         d="m 490.62336,99.977563 h 7.88 v 3.119997 h -7.88 v 9.6 q 0,1.56 0.24,2.6 0.24,1 0.72,1.6 0.48,0.56 1.2,0.8 0.72,0.24 1.68,0.24 1.68,0 2.68,-0.36 1.04,-0.4 1.44,-0.56 l 0.72,3.08 q -0.56,0.28 -1.96,0.68 -1.4,0.44 -3.2,0.44 -2.12,0 -3.52,-0.52 -1.36,-0.56 -2.2,-1.64 -0.84,-1.08 -1.2,-2.64 -0.32,-1.6 -0.32,-3.68 V 94.177563 l 3.72,-0.64 z"
         style="font-style:normal;font-variant:normal;font-weight:normal;font-stretch:normal;font-family:Ubuntu;-inkscape-font-specification:Ubuntu"
         id="path4687"
         inkscape:connector-curvature="0" />
      <path
         d="m 500.79711,124.65756 q 0.44,0.2 1.12,0.36 0.72,0.2 1.4,0.2 2.2,0 3.44,-1 1.24,-0.96 2.24,-3.16 -2.52,-4.8 -4.72,-10.16 -2.16,-5.4 -3.6,-10.919997 h 4 q 0.44,1.799997 1.04,3.879997 0.64,2.08 1.4,4.28 0.76,2.2 1.64,4.4 0.88,2.2 1.84,4.24 1.52,-4.2 2.64,-8.32 1.12,-4.12 2.12,-8.479997 h 3.84 q -1.44,5.879997 -3.2,11.319997 -1.76,5.4 -3.8,10.12 -0.8,1.8 -1.68,3.08 -0.84,1.32 -1.88,2.16 -1.04,0.84 -2.36,1.24 -1.28,0.4 -2.92,0.4 -0.44,0 -0.92,-0.08 -0.48,-0.04 -0.96,-0.16 -0.44,-0.08 -0.84,-0.2 -0.36,-0.12 -0.52,-0.2 z"
         style="font-style:normal;font-variant:normal;font-weight:normal;font-stretch:normal;font-family:Ubuntu;-inkscape-font-specification:Ubuntu"
         id="path4689"
         inkscape:connector-curvature="0" />
      <path
         d="m 549.21961,117.41756 v 3.36 h -16.68 V 93.057563 h 3.88 v 24.359997 z"
         style="font-style:normal;font-variant:normal;font-weight:normal;font-stretch:normal;font-family:Ubuntu;-inkscape-font-specification:Ubuntu"
         id="path4691"
         inkscape:connector-curvature="0" />
      <path
         d="m 570.00086,117.41756 v 3.36 h -16.68 V 93.057563 h 3.88 v 24.359997 z"
         style="font-style:normal;font-variant:normal;font-weight:normal;font-stretch:normal;font-family:Ubuntu;-inkscape-font-specification:Ubuntu"
         id="path4693"
         inkscape:connector-curvature="0" />
      <path
         d="m 584.22523,121.37756 q -2.92,0 -5.32,-0.96 -2.4,-0.96 -4.12,-2.8 -1.72,-1.84 -2.68,-4.52 -0.92,-2.72 -0.92,-6.2 0,-3.48 1.04,-6.16 1.08,-2.719997 2.88,-4.559997 1.8,-1.84 4.2,-2.8 2.4,-0.96 5.12,-0.96 1.72,0 3.08,0.24 1.4,0.24 2.4,0.56 1.04,0.32 1.68,0.64 0.64,0.32 0.88,0.48 l -1.12,3.2 q -0.36,-0.24 -1.04,-0.52 -0.68,-0.28 -1.56,-0.56 -0.84,-0.28 -1.88,-0.44 -1,-0.2 -2.04,-0.2 -2.2,0 -3.96,0.76 -1.76,0.76 -3,2.2 -1.24,1.439997 -1.92,3.519997 -0.64,2.04 -0.64,4.6 0,2.48 0.56,4.52 0.6,2.04 1.76,3.52 1.16,1.44 2.88,2.24 1.76,0.8 4.08,0.8 2.68,0 4.44,-0.56 1.76,-0.56 2.64,-1 l 1,3.2 q -0.28,0.2 -1,0.52 -0.72,0.28 -1.8,0.56 -1.08,0.28 -2.52,0.48 -1.44,0.2 -3.12,0.2 z"
         style="font-style:normal;font-variant:normal;font-weight:normal;font-stretch:normal;font-family:Ubuntu;-inkscape-font-specification:Ubuntu"
         id="path4695"
         inkscape:connector-curvature="0" />
    </g>
  </g>
</svg>
